<?xml version="1.0" standalone="no"?>
<!DOCTYPE svg PUBLIC "-//W3C//DTD SVG 20010904//EN"
 "http://www.w3.org/TR/2001/REC-SVG-20010904/DTD/svg10.dtd">
<svg version="1.0" xmlns="http://www.w3.org/2000/svg"
 width="160.000000pt" height="160.000000pt" viewBox="0 0 160.000000 160.000000"
 preserveAspectRatio="xMidYMid meet">

<g transform="translate(0.000000,160.000000) scale(0.100000,-0.100000)"
fill="#000000" stroke="none">
<path d="M476 1383 c-46 -12 -200 -133 -170 -133 6 0 16 6 24 13 12 10 12 9 1
-5 -7 -10 -20 -18 -29 -18 -8 0 -12 -3 -8 -7 3 -4 -6 -12 -21 -19 l-28 -13 25
-7 c49 -15 195 -95 230 -125 35 -31 35 -31 8 -25 -35 8 -35 4 3 -49 l31 -44
-41 -48 c-22 -27 -41 -55 -41 -61 0 -18 77 -65 91 -56 8 5 9 3 5 -5 -5 -7 -1
-20 6 -29 21 -24 123 -220 137 -264 17 -52 37 -66 45 -32 4 14 9 24 12 21 7
-6 -35 -109 -51 -126 -12 -13 -15 -12 -21 3 -4 11 1 25 15 40 22 23 28 46 12
46 -5 0 -16 -10 -24 -23 -13 -18 -16 -19 -16 -4 -2 37 -30 14 -62 -48 -43 -86
-70 -87 -34 -2 22 52 19 58 -20 54 -55 -6 -102 -58 -90 -97 7 -21 39 -27 50
-9 5 7 13 5 26 -7 27 -25 47 -11 76 53 28 62 44 60 19 -2 -9 -21 -16 -44 -16
-51 0 -25 22 -15 33 16 12 31 21 37 32 20 4 -6 11 -8 16 -5 5 4 9 -1 9 -10 0
-26 29 -29 54 -6 20 19 24 20 29 7 9 -23 37 -20 65 6 22 21 24 22 33 5 6 -9
16 -17 24 -17 9 0 12 -11 9 -38 -2 -20 1 -44 6 -52 8 -12 10 -11 10 6 0 12 18
69 40 128 22 58 40 108 40 109 0 2 -16 1 -35 -1 -25 -3 -45 -15 -70 -43 -19
-21 -40 -39 -47 -39 -6 0 -4 8 7 20 9 10 15 26 12 35 -9 21 -26 19 -20 -3 2
-10 -5 -26 -16 -36 -29 -26 -36 -15 -10 17 11 15 16 27 11 27 -14 0 -72 -68
-72 -84 0 -16 -36 -63 -43 -56 -2 3 2 26 9 52 11 34 18 46 29 42 8 -4 17 1 21
10 8 22 69 57 87 51 10 -4 17 3 22 22 3 15 38 86 76 157 67 125 68 130 51 150
-17 19 -17 19 7 3 23 -15 27 -15 60 5 57 34 57 34 8 97 l-47 59 30 41 c36 49
36 51 8 43 -14 -3 -19 -1 -14 6 12 20 147 104 199 124 65 25 79 37 49 44 -12
4 -19 10 -16 15 3 5 -1 9 -9 9 -8 0 -21 8 -28 18 -13 15 -12 16 4 3 28 -22 19
3 -10 30 -94 82 -180 115 -239 92 -16 -6 -16 -7 2 -15 13 -6 9 -7 -14 -3 -23
3 -31 1 -26 -7 4 -7 3 -8 -4 -4 -7 4 -22 -3 -34 -14 -13 -12 -48 -33 -78 -47
-54 -25 -56 -25 -107 -9 -29 9 -55 21 -58 26 -4 6 -14 10 -25 10 -10 0 -20 7
-24 15 -3 9 -12 12 -22 8 -11 -4 -15 -2 -11 4 4 6 0 14 -9 17 -24 9 -31 7 -14
-4 13 -9 13 -10 0 -9 -8 0 -24 4 -35 9 l-20 9 20 0 c17 1 17 3 5 11 -15 10
-70 11 -104 3z m460 -323 c20 0 9 -16 -15 -23 -15 -4 -18 -1 -14 12 5 13 2 12
-16 -3 -29 -26 -145 -25 -174 2 -18 16 -15 17 89 22 60 3 111 2 112 -2 2 -5
10 -8 18 -8z m-251 -10 c3 -5 2 -10 -4 -10 -5 0 -13 5 -16 10 -3 6 -2 10 4 10
5 0 13 -4 16 -10z m291 1 c-4 -5 0 -12 6 -14 7 -3 2 -6 -11 -6 -20 -1 -21 1
-11 14 14 16 25 21 16 6z m-310 -94 c-7 21 -5 22 26 16 18 -3 35 -10 36 -15 2
-4 11 -8 20 -9 29 -1 -19 -17 -53 -18 -32 -1 -75 23 -75 41 0 6 12 1 26 -13
26 -24 26 -24 20 -2z m284 16 c0 -3 -8 -15 -17 -26 -20 -23 -2 -16 30 11 16
14 17 14 12 0 -9 -23 -51 -38 -85 -31 -33 6 -51 23 -26 23 9 0 16 4 16 9 0 5
12 12 28 14 15 2 30 5 35 6 4 0 7 -2 7 -6z m-114 -108 c12 -8 38 -16 58 -18
20 -2 39 -6 42 -10 3 -3 17 -1 30 5 13 6 27 8 31 5 12 -13 -17 -82 -54 -131
-99 -128 -226 -112 -309 39 -41 73 -44 100 -11 89 34 -12 96 -5 141 16 50 23
47 23 72 5z m-6 -292 c0 -14 -53 -154 -56 -150 -2 2 7 36 20 75 25 72 20 96
-8 45 -8 -16 -15 -22 -16 -15 0 25 21 52 40 52 11 0 20 -3 20 -7z m150 -126
c0 -21 -51 -117 -62 -117 -17 0 -2 67 22 100 22 32 40 39 40 17z m-445 -93
c-21 -39 -45 -52 -45 -24 0 24 53 87 58 70 3 -7 -3 -28 -13 -46z m319 21 c-4
-8 -1 -15 6 -15 9 0 7 -7 -5 -20 -10 -11 -24 -20 -32 -20 -19 0 -16 47 5 59
24 15 32 13 26 -4z"/>
<path d="M749 761 l-21 -16 26 -28 c19 -20 34 -27 53 -25 42 5 41 28 -1 28
-20 0 -36 4 -36 9 0 4 23 7 50 6 56 -3 72 8 38 26 -35 19 -86 19 -109 0z"/>
<path d="M1336 651 c-21 -23 -18 -49 6 -65 13 -8 21 -7 29 1 14 14 4 47 -12
37 -8 -4 -7 -9 2 -15 17 -10 5 -23 -16 -16 -19 8 -20 41 0 57 22 18 48 8 64
-24 11 -24 11 -38 -3 -93 -16 -66 -57 -146 -64 -125 -2 6 1 20 7 31 28 52 0
101 -38 67 -14 -13 -20 -14 -23 -5 -8 25 -38 -1 -67 -59 -29 -57 -61 -96 -61
-73 0 6 9 34 20 63 24 62 24 68 7 68 -7 0 -25 -29 -41 -65 -25 -59 -56 -101
-56 -78 0 6 9 36 20 68 24 69 23 65 7 65 -8 0 -25 -29 -39 -64 l-25 -64 25
-13 c22 -13 26 -12 40 9 13 20 16 21 27 6 20 -28 42 -10 80 66 52 103 61 94
16 -17 -17 -43 -18 -53 -6 -53 8 0 29 32 49 75 19 41 39 75 45 75 14 0 14 -4
-4 -47 -30 -70 -7 -115 36 -72 63 63 92 216 49 259 -25 25 -52 25 -74 1z"/>
<path d="M444 590 c-28 -11 -81 -76 -89 -109 -10 -38 -24 -51 -56 -51 -16 0
-29 -4 -29 -8 0 -5 14 -6 31 -4 29 4 31 3 24 -19 -16 -58 -62 -135 -87 -149
-25 -13 -31 -13 -55 0 -37 20 -44 73 -14 90 32 17 82 -16 52 -34 -5 -4 -11 -1
-13 6 -5 13 -28 2 -28 -13 0 -6 12 -9 28 -7 35 4 43 41 12 58 -31 17 -69 4
-81 -27 -20 -52 13 -93 73 -93 35 0 47 6 79 39 21 23 44 62 54 93 20 58 28 68
63 68 27 0 27 -2 3 -73 -16 -46 -17 -57 -6 -57 11 0 30 39 59 126 3 6 22 14
44 18 45 7 99 47 113 83 11 30 -5 73 -28 72 -11 0 -13 -3 -5 -6 7 -2 17 -13
22 -23 22 -41 -33 -99 -108 -115 -32 -7 -34 -6 -27 16 14 46 50 101 75 115 18
9 20 13 8 14 -28 0 -76 -48 -103 -105 -23 -49 -29 -55 -56 -55 -27 0 -30 3
-24 23 14 44 56 107 83 121 29 16 20 20 -14 6z"/>
<path d="M1187 546 c-3 -8 -3 -17 0 -20 9 -9 34 15 27 25 -8 13 -21 11 -27 -5z"/>
<path d="M1024 443 c-25 -60 -27 -88 -10 -102 8 -7 20 -10 27 -6 8 6 7 10 -2
16 -12 7 -10 19 8 69 17 48 19 60 7 60 -7 0 -21 -17 -30 -37z"/>
<path d="M1265 279 c-4 -6 -5 -12 -2 -15 2 -3 7 2 10 11 7 17 1 20 -8 4z"/>
<path d="M314 258 l-19 -23 23 19 c21 18 27 26 19 26 -2 0 -12 -10 -23 -22z"/>
<path d="M411 264 c0 -11 3 -14 6 -6 3 7 2 16 -1 19 -3 4 -6 -2 -5 -13z"/>
<path d="M334 236 c-10 -26 1 -79 18 -90 13 -8 23 -8 38 2 28 17 36 15 17 -6
-14 -15 -14 -19 -3 -19 8 0 19 11 25 24 8 18 8 23 -4 23 -9 0 -24 -5 -34 -12
-34 -21 -53 -3 -49 47 3 47 1 55 -8 31z"/>
<path d="M886 237 c8 -22 -4 -70 -16 -62 -16 10 -11 -32 6 -45 13 -11 16 -10
21 8 7 28 20 28 28 1 4 -11 9 -19 11 -17 4 5 -40 115 -50 125 -4 4 -4 0 0 -10z"/>
<path d="M1133 195 c0 -33 2 -45 4 -27 2 18 2 45 0 60 -2 15 -4 0 -4 -33z"/>
<path d="M1280 245 c0 -3 9 -14 20 -25 20 -20 77 -29 65 -10 -3 5 -12 6 -21 3
-9 -3 -24 4 -35 16 -19 21 -29 26 -29 16z"/>
<path d="M291 199 c0 -19 6 -44 15 -55 8 -10 12 -12 8 -4 -5 8 -11 33 -15 55
l-6 40 -2 -36z"/>
<path d="M1230 215 c-11 -13 -8 -15 18 -15 34 0 50 15 26 24 -23 9 -30 8 -44
-9z"/>
<path d="M470 200 c0 -5 5 -10 10 -10 6 0 10 5 10 10 0 6 -4 10 -10 10 -5 0
-10 -4 -10 -10z"/>
<path d="M765 200 c3 -5 8 -10 11 -10 2 0 4 5 4 10 0 6 -5 10 -11 10 -5 0 -7
-4 -4 -10z"/>
<path d="M976 195 c-9 -26 -7 -32 5 -12 6 10 9 21 6 23 -2 3 -7 -2 -11 -11z"/>
<path d="M1040 200 c0 -5 5 -10 10 -10 6 0 10 5 10 10 0 6 -4 10 -10 10 -5 0
-10 -4 -10 -10z"/>
<path d="M562 170 c0 -19 2 -27 5 -17 2 9 2 25 0 35 -3 9 -5 1 -5 -18z"/>
<path d="M600 166 c0 -27 12 -45 26 -39 8 3 11 9 8 14 -3 5 -10 6 -16 3 -7 -5
-9 -1 -5 9 3 9 2 19 -3 22 -6 4 -10 0 -10 -9z"/>
<path d="M821 157 c-1 -10 -5 -15 -11 -12 -5 3 -10 -2 -10 -12 0 -16 1 -16 16
-1 9 9 14 22 11 30 -4 9 -6 7 -6 -5z"/>
<path d="M1100 161 c0 -6 4 -13 10 -16 6 -3 7 1 4 9 -7 18 -14 21 -14 7z"/>
<path d="M450 155 c0 -5 5 -17 10 -25 5 -8 10 -10 10 -5 0 6 -5 17 -10 25 -5
8 -10 11 -10 5z"/>
<path d="M496 145 c-9 -26 -7 -32 5 -12 6 10 9 21 6 23 -2 3 -7 -2 -11 -11z"/>
<path d="M1020 155 c0 -5 5 -17 10 -25 5 -8 10 -10 10 -5 0 6 -5 17 -10 25 -5
8 -10 11 -10 5z"/>
<path d="M1066 145 c-9 -26 -7 -32 5 -12 6 10 9 21 6 23 -2 3 -7 -2 -11 -11z"/>
<path d="M1190 150 c-23 -7 -23 -8 -3 -9 12 -1 25 4 28 9 3 6 5 10 3 9 -2 -1
-14 -5 -28 -9z"/>
<path d="M1231 144 c0 -11 3 -14 6 -6 3 7 2 16 -1 19 -3 4 -6 -2 -5 -13z"/>
</g>
</svg>
